<mxfile host="Electron" agent="Mozilla/5.0 (Windows NT 10.0; Win64; x64) AppleWebKit/537.36 (KHTML, like Gecko) draw.io/27.0.5 Chrome/134.0.6998.205 Electron/35.3.0 Safari/537.36" version="27.0.5">
  <diagram name="第 1 页" id="a4dbQeDTD17bdIDiLBRm">
    <mxGraphModel dx="1042" dy="626" grid="1" gridSize="10" guides="1" tooltips="1" connect="1" arrows="1" fold="1" page="1" pageScale="1" pageWidth="827" pageHeight="1169" math="0" shadow="0">
      <root>
        <mxCell id="0" />
        <mxCell id="1" parent="0" />
        <mxCell id="OREVJjrYgO_rsp0FhopM-1" value="" style="rounded=0;whiteSpace=wrap;html=1;fillColor=#fff2cc;strokeColor=#d6b656;" parent="1" vertex="1">
          <mxGeometry x="340" y="315" width="200" height="45" as="geometry" />
        </mxCell>
        <mxCell id="OREVJjrYgO_rsp0FhopM-2" value="" style="rounded=0;whiteSpace=wrap;html=1;fillColor=#C4BB9E;strokeColor=#d6b656;" parent="1" vertex="1">
          <mxGeometry x="560" y="315" width="40" height="45" as="geometry" />
        </mxCell>
        <mxCell id="OREVJjrYgO_rsp0FhopM-5" value="&lt;font style=&quot;font-size: 20px;&quot;&gt;Tag&lt;/font&gt;" style="text;html=1;align=center;verticalAlign=middle;resizable=0;points=[];autosize=1;strokeColor=none;fillColor=none;" parent="1" vertex="1">
          <mxGeometry x="390" y="260" width="60" height="40" as="geometry" />
        </mxCell>
        <mxCell id="OREVJjrYgO_rsp0FhopM-7" value="&lt;font style=&quot;font-size: 20px;&quot;&gt;Offset&lt;/font&gt;" style="text;html=1;align=center;verticalAlign=middle;resizable=0;points=[];autosize=1;strokeColor=none;fillColor=none;" parent="1" vertex="1">
          <mxGeometry x="570" y="260" width="80" height="40" as="geometry" />
        </mxCell>
        <mxCell id="OREVJjrYgO_rsp0FhopM-8" value="" style="endArrow=classic;html=1;rounded=0;exitX=0.56;exitY=1.013;exitDx=0;exitDy=0;exitPerimeter=0;" parent="1" source="OREVJjrYgO_rsp0FhopM-5" target="OREVJjrYgO_rsp0FhopM-1" edge="1">
          <mxGeometry width="50" height="50" relative="1" as="geometry">
            <mxPoint x="530" y="455" as="sourcePoint" />
            <mxPoint x="580" y="405" as="targetPoint" />
          </mxGeometry>
        </mxCell>
        <mxCell id="OREVJjrYgO_rsp0FhopM-9" value="" style="endArrow=classic;html=1;rounded=0;exitX=0.44;exitY=0.907;exitDx=0;exitDy=0;exitPerimeter=0;entryX=0.5;entryY=0;entryDx=0;entryDy=0;" parent="1" source="OREVJjrYgO_rsp0FhopM-7" target="OREVJjrYgO_rsp0FhopM-2" edge="1">
          <mxGeometry width="50" height="50" relative="1" as="geometry">
            <mxPoint x="422" y="265" as="sourcePoint" />
            <mxPoint x="441" y="325" as="targetPoint" />
          </mxGeometry>
        </mxCell>
        <mxCell id="OREVJjrYgO_rsp0FhopM-10" value="&lt;ul&gt;&lt;li&gt;Tag:主存地址高位，表示数据块&lt;/li&gt;&lt;li&gt;Index:决定了主存数据块可以被映射到Cache的哪一组&lt;/li&gt;&lt;li&gt;Offset:主存地址低位，表示偏移量&lt;/li&gt;&lt;/ul&gt;" style="text;html=1;align=left;verticalAlign=middle;resizable=0;points=[];autosize=1;strokeColor=none;fillColor=none;" parent="1" vertex="1">
          <mxGeometry x="310" y="350" width="350" height="80" as="geometry" />
        </mxCell>
        <mxCell id="9vWCYULDNKHC5QL2L-es-1" value="" style="rounded=0;whiteSpace=wrap;html=1;fillColor=#DFD3B4;strokeColor=#B09500;fontColor=#000000;" vertex="1" parent="1">
          <mxGeometry x="540" y="315" width="20" height="45" as="geometry" />
        </mxCell>
        <mxCell id="9vWCYULDNKHC5QL2L-es-3" value="&lt;font style=&quot;font-size: 20px;&quot;&gt;Index&lt;/font&gt;" style="text;html=1;align=center;verticalAlign=middle;resizable=0;points=[];autosize=1;strokeColor=none;fillColor=none;" vertex="1" parent="1">
          <mxGeometry x="475" y="260" width="70" height="40" as="geometry" />
        </mxCell>
        <mxCell id="9vWCYULDNKHC5QL2L-es-4" value="" style="endArrow=classic;html=1;rounded=0;exitX=0.44;exitY=0.907;exitDx=0;exitDy=0;exitPerimeter=0;entryX=0.5;entryY=0;entryDx=0;entryDy=0;" edge="1" source="9vWCYULDNKHC5QL2L-es-3" parent="1" target="9vWCYULDNKHC5QL2L-es-1">
          <mxGeometry width="50" height="50" relative="1" as="geometry">
            <mxPoint x="362" y="210" as="sourcePoint" />
            <mxPoint x="520" y="260" as="targetPoint" />
          </mxGeometry>
        </mxCell>
      </root>
    </mxGraphModel>
  </diagram>
</mxfile>
